<svg xmlns="http://www.w3.org/2000/svg" width="24" height="21" viewBox="0 0 24 21"><path d="M24 3.75h-3.75V.02h-1.5v3.73H15v1.52h3.75V9h1.5V5.27H24zm-13.42 8.3c-.57-.41-1.66-1.39-1.66-1.97 0-.68.19-1.01 1.21-1.81C11.18 7.45 12 6.4 12 5.06c0-1.59-.78-2.81-2.11-3.56h2L13.3 0H6.97c-2.84 0-5.5 2.29-5.5 4.78a4.63 4.63 0 0 0 4.81 4.67c.2 0 .4.03.6.02-.2.36-.33.78-.33 1.2 0 .71.38 1.29.86 1.76l-1.1.01C2.8 12.44 0 14.68 0 17c0 2.29 3.06 4 6.57 4 4.01 0 6.18-2.55 6.18-4.84 0-1.83-.5-2.93-2.17-4.11zM7.2 8.88c-1.63-.05-3.18-1.83-3.46-3.97-.28-2.14.81-3.78 2.44-3.73 1.63.05 3.25 1.77 3.53 3.91.29 2.14-.88 3.84-2.51 3.79zm-.64 10.64c-2.43 0-4.18-1.35-4.18-3.19 0-1.81 2.17-3.32 4.6-3.3.57.01 1.1.1 1.58.26 1.32.91 2.26 1.43 2.53 2.48.05.21.08.43.08.65 0 1.85-1.2 3.1-4.6 3.1z"/></svg>