<svg xmlns="http://www.w3.org/2000/svg" width="24" height="25" viewBox="0 0 24 25"><path d="M19.5 24.75h-15a4.5 4.5 0 0 1-4.5-4.5v-15c0-1.56.8-2.94 2-3.74v6.74h-.5v12a3 3 0 0 0 3 3h15a3 3 0 0 0 3-3v-12h-6.35a6.1 6.1 0 0 0-8.3 0H6V.75h13.5a4.5 4.5 0 0 1 4.5 4.5v15a4.5 4.5 0 0 1-4.5 4.5zM3 8.25V1.01A4.5 4.5 0 0 1 4.5.75H5v7.5zM17.25 4.5v.75c0 .83.67 1.5 1.5 1.5h1.5c.83 0 1.5-.67 1.5-1.5V4.5c0-.83-.67-1.5-1.5-1.5h-1.5c-.83 0-1.5.67-1.5 1.5zM12 8.93a4.57 4.57 0 1 1 0 9.14 4.57 4.57 0 0 1 0-9.14zM8.95 13.5a3.05 3.05 0 1 0 6.1 0 3.05 3.05 0 0 0-6.1 0z"/></svg>