<svg xmlns="http://www.w3.org/2000/svg" width="24" height="25" viewBox="0 0 24 25"><path d="M12 .97a12 12 0 0 0-4.75 23.02c-.03-.83 0-1.83.21-2.74l1.55-6.56s-.38-.77-.38-1.91c0-1.78 1.03-3.11 2.32-3.11 1.1 0 1.62.82 1.62 1.81 0 1.1-.7 2.74-1.06 4.27-.3 1.28.64 2.32 1.9 2.32 2.28 0 3.82-2.93 3.82-6.4 0-2.64-1.78-4.62-5.01-4.62a5.7 5.7 0 0 0-5.93 5.77c0 1.05.3 1.79.8 2.36.22.26.25.37.16.67l-.24.97c-.08.31-.33.41-.6.3-1.68-.69-2.47-2.53-2.47-4.6C3.94 9.1 6.83 5 12.54 5c4.6 0 7.63 3.32 7.63 6.89 0 4.73-2.62 8.26-6.5 8.26-1.3 0-2.52-.7-2.94-1.5l-.84 3.31a10.2 10.2 0 0 1-1.2 2.55A12 12 0 0 0 24 12.97a12 12 0 0 0-12-12z"/></svg>